<?xml version="1.0" standalone="no"?>
<!DOCTYPE svg PUBLIC "-//W3C//DTD SVG 20010904//EN"
 "http://www.w3.org/TR/2001/REC-SVG-20010904/DTD/svg10.dtd">
<svg version="1.0" xmlns="http://www.w3.org/2000/svg"
 width="1024.000000pt" height="1024.000000pt" viewBox="0 0 1024.000000 1024.000000"
 preserveAspectRatio="xMidYMid meet">

<g transform="translate(0.000000,1024.000000) scale(0.100000,-0.100000)"
fill="#000000" stroke="none">
<path d="M0 5120 l0 -5120 5120 0 5120 0 0 5120 0 5120 -5120 0 -5120 0 0
-5120z m5303 4197 c134 -66 229 -182 257 -315 6 -26 10 -84 8 -128 l-3 -79
-51 -3 -51 -3 0 89 c0 80 -3 97 -32 158 -62 132 -174 206 -316 207 -139 2
-245 -61 -305 -177 -34 -66 -35 -73 -35 -177 l0 -109 -51 0 c-61 0 -64 5 -64
120 1 137 41 242 125 326 96 96 197 135 341 131 94 -2 106 -5 177 -40z m-145
-167 c99 -60 95 -201 -8 -293 -62 -56 -101 -70 -204 -71 l-90 -1 -8 40 c-17
79 17 202 77 273 56 67 167 92 233 52z m-876 -393 c8 -45 -2 -55 -75 -77 -192
-58 -446 -166 -630 -267 -578 -318 -1057 -823 -1328 -1399 -170 -363 -267
-765 -285 -1179 -4 -88 -11 -166 -17 -172 -13 -18 -62 -16 -77 3 -11 12 -11
51 -2 202 52 859 409 1618 1027 2184 373 342 839 602 1285 716 84 22 96 20
102 -11z m1779 7 c297 -75 698 -270 987 -481 281 -205 561 -490 746 -760 340
-498 530 -1055 567 -1662 5 -91 7 -176 4 -188 -6 -27 -45 -39 -72 -24 -18 9
-21 26 -26 159 -32 739 -310 1421 -800 1963 -363 403 -891 737 -1417 899 -58
18 -111 37 -117 43 -16 12 -17 49 -1 65 15 15 8 16 129 -14z m-451 -44 c16 -9
20 -19 18 -43 l-3 -32 -495 -3 c-541 -2 -540 -3 -526 51 l6 27 298 2 c163 2
383 4 489 6 129 2 199 -1 213 -8z m-310 -155 c0 -13 -42 -15 -320 -15 -176 0
-320 4 -320 8 0 5 3 12 7 15 3 4 147 7 320 7 272 0 313 -2 313 -15z m328 -87
c19 -19 15 -66 -7 -78 -13 -6 -191 -10 -510 -10 -432 0 -491 2 -505 16 -21 20
-20 43 1 66 15 17 44 18 513 18 372 0 499 -3 508 -12z m-839 -998 l-1 -840
-44 0 -44 0 0 840 0 840 45 0 46 0 -2 -840z m401 836 c0 -2 -72 -70 -160 -151
l-160 -146 0 150 0 151 160 0 c88 0 160 -2 160 -4z m341 -48 c1 -29 2 -64 1
-78 0 -14 0 -366 -1 -782 l-1 -758 -40 0 -40 0 0 835 0 835 40 0 40 0 1 -52z
m-1189 3 c31 -35 36 -80 14 -120 -13 -23 -12 -26 18 -40 17 -9 39 -32 49 -53
16 -32 17 -43 7 -73 -16 -49 -49 -71 -163 -106 -55 -17 -106 -33 -113 -36 -7
-3 -15 8 -19 29 -4 18 -27 109 -52 202 -35 134 -41 171 -31 178 7 4 47 19 88
33 102 34 163 30 202 -14z m1761 23 c51 -17 120 -85 115 -112 -2 -9 -18 -20
-36 -26 -28 -8 -34 -6 -54 19 -25 32 -82 58 -108 50 -53 -17 -26 -73 57 -122
62 -36 93 -77 93 -122 0 -44 -33 -99 -70 -119 -35 -18 -127 -9 -179 17 -48 25
-121 94 -121 116 0 8 16 19 38 24 52 15 57 14 70 -14 14 -31 68 -65 103 -65
14 0 34 9 45 21 24 27 14 42 -65 98 -77 53 -104 93 -97 140 14 94 99 133 209
95z m405 -164 c17 -11 32 -25 32 -32 0 -7 -16 -41 -34 -75 l-34 -63 66 -35
c37 -19 70 -35 73 -35 4 0 22 27 41 60 18 33 37 60 42 60 11 0 76 -40 76 -46
0 -3 -33 -65 -73 -137 -41 -73 -86 -156 -102 -184 -15 -29 -32 -53 -37 -53 -4
0 -23 10 -42 22 l-33 22 44 81 c49 94 50 92 -45 139 l-53 27 -15 -28 c-9 -15
-29 -52 -45 -81 l-29 -52 -41 20 -40 21 69 132 c38 73 84 160 101 195 17 34
35 62 39 62 4 0 22 -9 40 -20z m-1128 -165 l0 -175 -251 -260 c-138 -144 -253
-259 -255 -257 -2 2 -5 78 -8 170 l-4 166 193 203 c107 112 220 231 252 264
32 34 61 62 66 63 4 0 7 -78 7 -174z m-1550 150 c16 -9 36 -29 45 -45 19 -38
19 -109 -1 -138 -8 -12 -13 -26 -10 -31 3 -5 37 -27 75 -50 39 -23 73 -46 76
-51 4 -6 -14 -20 -40 -31 l-46 -20 -60 40 c-34 23 -68 41 -76 41 -12 0 -49
-15 -61 -25 -2 -2 11 -31 28 -66 l32 -62 -23 -19 c-25 -18 -58 -32 -64 -26 -1
1 -44 88 -95 191 -105 218 -109 188 33 262 95 48 138 55 187 30z m-412 -442
c103 -58 189 -108 191 -110 3 -2 -9 -18 -27 -35 l-31 -32 -36 17 c-52 25 -64
22 -124 -31 l-53 -48 17 -39 16 -40 -36 -34 c-21 -18 -41 -29 -45 -25 -4 5
-43 99 -85 209 l-78 199 44 38 c24 21 48 38 52 38 5 0 93 -48 195 -107z m3622
66 c88 -40 133 -102 133 -187 2 -161 -168 -278 -308 -213 -47 22 -99 74 -114
114 -39 101 20 235 123 283 62 29 107 30 166 3z m-2824 -290 c8 -13 -44 -115
-130 -252 -530 -851 -716 -1154 -716 -1168 0 -7 10 -33 22 -58 25 -51 28 -138
7 -214 -23 -86 -152 -165 -251 -154 -26 3 -65 15 -87 26 -51 26 -81 26 -132 0
-77 -39 -161 -5 -123 49 12 17 25 22 58 22 60 0 82 26 90 110 13 134 83 216
204 240 83 16 123 41 164 101 63 92 90 170 98 292 9 129 9 129 190 343 69 81
201 238 293 348 282 336 293 347 313 315z m1824 -14 c14 -7 164 -153 335 -323
197 -196 358 -347 440 -412 150 -120 265 -219 265 -229 0 -10 -74 -51 -91 -51
-7 0 -50 36 -95 81 l-83 80 -48 -26 c-26 -15 -64 -36 -84 -47 -26 -15 -43 -19
-64 -14 -36 9 -699 677 -733 739 -24 44 -23 76 6 132 37 73 97 101 152 70z
m1402 -125 c39 -53 70 -105 74 -125 13 -74 -44 -145 -124 -153 -59 -5 -94 11
-145 67 -20 23 -41 41 -45 41 -5 0 -27 -16 -49 -35 -23 -19 -45 -35 -50 -34
-4 0 -21 16 -36 34 l-28 34 62 48 c34 26 108 85 163 130 56 45 103 82 106 82
3 0 35 -40 72 -89z m-4491 70 c22 -12 49 -60 49 -88 0 -17 6 -19 50 -14 44 4
52 2 80 -26 60 -60 31 -152 -92 -286 l-45 -50 -34 24 c-92 65 -299 223 -299
229 0 15 145 184 173 202 35 21 87 25 118 9z m2429 -157 l-1 -158 -197 -215
-198 -215 -57 3 -57 4 0 121 0 122 248 247 c136 136 250 247 255 247 4 1 7
-70 7 -156z m-950 -337 c0 -7 -8 -20 -17 -28 -26 -22 -696 -388 -701 -383 -5
5 112 203 131 221 22 21 565 217 579 208 4 -3 8 -11 8 -18z m-1595 -263 c36
-12 65 -31 102 -70 40 -40 59 -53 82 -53 16 0 100 16 186 36 86 20 158 34 159
32 9 -10 13 -78 6 -83 -5 -3 -62 -21 -127 -41 -183 -56 -206 -71 -238 -159
-54 -147 -173 -235 -318 -235 -247 1 -369 313 -193 494 52 53 93 76 166 92 60
13 99 10 175 -13z m2775 -56 c32 -16 40 -65 14 -84 -14 -10 -122 -13 -510 -13
-434 0 -494 2 -508 16 -21 21 -20 47 2 67 16 14 52 17 253 20 641 7 724 7 749
-6z m1714 -37 c34 -12 59 -63 51 -101 -20 -90 -358 -360 -672 -538 -235 -133
-518 -251 -602 -251 -81 0 -141 52 -148 127 -4 39 0 55 19 82 25 38 29 40 353
176 191 81 539 252 668 328 43 26 105 68 138 94 125 100 137 105 193 83z
m-2166 -120 c110 0 132 -2 132 -15 0 -13 -41 -15 -310 -15 -252 0 -310 3 -310
13 0 8 3 17 8 21 4 5 84 6 177 2 94 -3 230 -6 303 -6z m420 -102 c18 -18 14
-46 -7 -58 -13 -6 -177 -10 -464 -10 -376 0 -446 2 -457 15 -15 18 -4 52 18
58 9 3 215 5 457 6 331 1 444 -2 453 -11z m1842 -152 c88 -86 121 -111 191
-145 47 -22 95 -41 107 -41 34 0 50 -42 28 -74 -9 -14 -27 -28 -39 -31 -32 -9
-124 28 -193 77 -83 58 -225 180 -253 218 l-23 32 33 34 c18 19 35 34 38 34 2
0 52 -47 111 -104z m-2628 -25 c10 -101 82 -197 186 -248 49 -24 69 -28 142
-28 73 0 93 4 142 28 95 46 161 137 176 239 l7 53 44 3 44 3 -5 -66 c-14 -172
-157 -324 -337 -357 -170 -32 -366 64 -449 219 -29 55 -58 176 -46 194 3 5 25
9 48 9 l43 0 5 -49z m392 30 c26 -28 24 -100 -3 -144 -24 -39 -91 -77 -134
-77 -36 0 -96 25 -125 53 -34 32 -49 64 -56 130 l-7 57 154 0 c139 0 156 -2
171 -19z m-656 -502 c2 -22 -2 -40 -11 -47 -11 -9 -105 -12 -353 -10 l-339 3
-3 33 c-6 64 -26 61 355 59 l348 -2 3 -36z m3512 -319 c130 -27 238 -81 317
-160 107 -107 154 -238 157 -437 l1 -113 -210 -1 -210 -2 -6 89 c-3 49 -11
101 -17 115 -19 46 -75 101 -127 125 -65 31 -180 33 -241 5 -51 -23 -107 -88
-124 -143 -19 -65 -15 -162 11 -214 29 -61 86 -106 283 -225 446 -268 542
-343 605 -466 49 -98 64 -178 64 -333 0 -221 -49 -356 -173 -480 -76 -76 -150
-118 -275 -156 -85 -26 -101 -28 -280 -28 -164 0 -201 3 -275 22 -239 62 -386
202 -434 413 -8 35 -16 123 -18 194 l-3 130 228 3 227 2 0 -79 c0 -159 33
-227 135 -277 200 -97 425 25 425 231 0 156 -44 201 -390 400 -203 116 -379
235 -438 295 -102 103 -152 256 -152 457 1 205 47 352 144 459 74 83 215 155
351 179 111 21 314 18 425 -5z m-1150 -12 c0 -7 -144 -325 -250 -553 -56 -121
-129 -278 -160 -350 -32 -71 -76 -168 -99 -214 -38 -78 -39 -85 -27 -115 8
-17 58 -125 113 -241 55 -115 133 -282 173 -370 40 -88 113 -243 161 -344 49
-101 89 -186 89 -188 0 -2 -111 -2 -246 -1 l-247 3 -94 225 c-52 124 -130 312
-173 419 -69 169 -80 191 -89 170 -44 -115 -258 -644 -290 -718 -23 -52 -46
-98 -52 -102 -17 -10 -469 -11 -469 -1 0 7 283 611 501 1068 22 45 39 89 39
98 0 9 -9 35 -21 58 -11 22 -49 108 -84 192 -35 83 -105 241 -155 351 -51 110
-118 259 -150 331 -32 72 -73 159 -91 195 -19 35 -35 67 -37 72 -2 4 115 7
261 7 l264 0 12 -42 c7 -24 37 -106 67 -183 29 -77 93 -249 142 -383 l89 -244
28 69 c15 37 88 227 161 422 73 195 137 357 143 360 10 7 491 16 491 9z
m-3995 -36 c211 -66 320 -172 371 -362 25 -92 25 -330 0 -419 -38 -138 -120
-254 -220 -311 l-49 -28 63 -32 c156 -79 237 -213 260 -433 13 -115 2 -264
-26 -357 -40 -138 -147 -269 -266 -327 -96 -48 -166 -63 -333 -73 -164 -10
-945 -11 -945 -1 0 3 9 21 20 39 20 32 20 53 23 1145 l2 1112 -22 38 -23 38
538 -3 c520 -4 539 -5 607 -26z m2046 -192 c4 -118 5 -217 3 -220 -3 -2 -26 4
-52 15 -42 17 -84 19 -404 23 l-358 4 0 -281 0 -281 320 0 320 0 0 -200 0
-200 -310 -1 c-170 -1 -316 -2 -322 -3 -10 -1 -13 -67 -13 -296 l0 -295 375 0
c369 0 376 1 417 23 l43 22 5 -22 c3 -13 4 -117 3 -233 l-3 -210 -665 -3
c-366 -1 -671 0 -678 3 -10 3 -5 17 17 49 l31 45 0 1092 0 1092 -30 48 -30 49
663 -2 662 -3 6 -215z m-2863 -2522 c5 -7 26 -56 47 -108 158 -411 527 -840
966 -1123 631 -406 1434 -609 2241 -567 946 49 1795 415 2329 1005 178 197
343 445 432 650 26 61 52 117 56 125 9 17 79 26 93 12 13 -13 -42 -156 -113
-291 -409 -775 -1177 -1314 -2168 -1520 -269 -57 -526 -81 -848 -81 -782 0
-1526 215 -2113 610 -427 287 -722 624 -924 1052 -71 150 -92 214 -76 233 15
18 64 20 78 3z m5647 -103 l0 -40 -2605 -5 c-1433 -3 -2610 -3 -2617 -2 -17 5
-26 39 -19 68 l6 24 2618 -2 2617 -3 0 -40z m-4566 -355 c96 -62 113 -80 114
-124 1 -44 -24 -73 -70 -82 -23 -4 -31 -10 -25 -18 30 -38 13 -114 -29 -137
-60 -32 -173 7 -250 87 l-31 32 99 145 c54 81 102 146 106 147 4 0 43 -22 86
-50z m4014 -4 c51 -22 79 -59 85 -114 4 -41 0 -52 -23 -80 -15 -18 -47 -44
-71 -58 -24 -14 -44 -31 -44 -36 0 -6 14 -35 31 -64 l30 -53 -37 -16 c-20 -8
-39 -15 -43 -15 -7 0 -181 334 -181 348 0 13 138 84 180 93 19 4 36 7 38 8 1
0 17 -5 35 -13z m-1398 -66 l0 -35 -120 -6 c-173 -8 -1101 -9 -1160 -1 -42 6
-51 11 -53 30 -8 55 -47 52 670 50 l663 -3 0 -35z m-2200 -147 l47 -26 -5 -51
c-3 -28 -11 -109 -17 -181 -16 -183 -13 -176 -53 -163 -49 17 -56 25 -50 67
l5 38 -63 30 -64 31 -27 -31 -26 -32 -42 20 -41 21 101 109 c56 61 118 129
138 153 20 23 39 42 43 42 4 0 28 -12 54 -27z m3217 -12 c60 -38 98 -114 98
-197 0 -98 -53 -161 -153 -184 -93 -20 -165 19 -213 115 -35 74 -32 164 8 217
60 79 178 101 260 49z m-2842 -126 c80 -21 112 -37 139 -71 45 -57 15 -160
-53 -185 -42 -15 -44 -26 -20 -111 9 -32 15 -61 12 -63 -3 -3 -22 -2 -43 3
-42 8 -48 19 -60 105 -5 40 -11 50 -32 58 -38 14 -48 7 -63 -48 -7 -26 -16
-51 -19 -55 -10 -12 -83 12 -79 25 2 7 30 92 63 189 46 138 63 177 75 173 8
-2 44 -11 80 -20z m2417 -184 c30 -107 50 -197 46 -202 -4 -4 -24 -10 -43 -14
l-35 -6 -19 81 c-10 44 -22 82 -25 84 -6 4 -132 -32 -140 -40 -2 -2 4 -40 14
-84 10 -44 16 -82 14 -84 -2 -2 -20 -7 -40 -11 l-36 -7 -12 49 c-7 26 -32 115
-57 197 -25 81 -43 151 -40 154 3 3 25 6 48 6 l42 1 15 -62 c9 -34 19 -65 23
-68 7 -7 117 23 132 37 6 4 3 32 -7 68 -9 33 -17 64 -17 69 0 11 49 31 69 28
9 -1 33 -70 68 -196z m-1957 63 c71 -8 106 -27 126 -66 20 -39 12 -83 -22
-119 l-26 -28 21 -27 c44 -56 9 -146 -63 -159 -25 -5 -223 20 -233 29 -1 1 14
89 35 194 l36 193 36 -5 c19 -3 60 -8 90 -12z m1420 -29 c32 -16 32 -23 -2
-69 -14 -17 -16 -17 -46 -2 -41 21 -74 20 -102 -2 -33 -27 -14 -58 40 -66 22
-3 58 -9 81 -12 124 -18 148 -173 36 -225 -52 -23 -128 -24 -190 -3 -57 19
-64 29 -41 56 32 35 54 42 74 23 21 -19 94 -23 114 -6 17 15 26 45 16 60 -4 7
-37 16 -75 22 -127 18 -160 48 -156 142 1 34 45 79 93 95 42 14 118 8 158 -13z
m-867 -41 c12 -4 17 -16 17 -46 0 -37 -2 -40 -22 -35 -13 3 -51 9 -85 13 l-63
7 0 -42 0 -41 43 0 c75 0 88 -8 85 -48 l-3 -36 -67 3 -66 2 -7 -30 c-9 -44 -1
-51 63 -51 88 0 102 -6 102 -46 0 -22 -6 -37 -16 -41 -15 -6 -243 13 -251 21
-3 3 2 74 11 159 9 85 16 172 16 192 l0 37 113 -7 c61 -3 120 -9 130 -11z
m412 2 c19 -8 41 -28 49 -45 31 -59 13 -156 -34 -181 -19 -10 -18 -14 29 -84
l50 -74 -31 -6 c-59 -12 -66 -8 -99 55 -34 63 -67 87 -97 70 -12 -7 -15 -22
-13 -66 3 -63 -5 -75 -50 -75 -25 0 -26 2 -33 77 -3 42 -6 131 -6 199 l0 123
38 6 c20 4 42 8 47 10 27 9 119 3 150 -9z"/>
<path d="M4171 8219 c-21 -8 -23 -13 -17 -52 9 -54 15 -59 55 -47 64 18 89 61
55 94 -17 18 -56 20 -93 5z"/>
<path d="M4243 8057 c-23 -7 -44 -15 -48 -19 -4 -3 -1 -25 6 -48 l13 -42 40 7
c55 8 86 30 86 60 0 21 -33 57 -50 54 -3 -1 -24 -6 -47 -12z"/>
<path d="M3688 8019 c-43 -22 -46 -34 -18 -89 25 -48 43 -50 93 -9 42 34 49
75 19 102 -24 22 -48 21 -94 -4z"/>
<path d="M3265 7603 c31 -80 37 -88 62 -75 21 12 58 51 52 55 -14 12 -98 66
-117 76 l-22 12 25 -68z"/>
<path d="M6887 7638 c-18 -18 -42 -54 -51 -79 -16 -42 -16 -49 -2 -82 20 -50
69 -79 121 -73 32 4 49 14 81 50 66 72 68 136 4 189 -47 40 -107 38 -153 -5z"/>
<path d="M3527 6592 c-36 -39 -12 -86 40 -80 22 2 29 9 31 30 7 58 -37 88 -71
50z"/>
<path d="M3124 5951 c-83 -38 -107 -114 -61 -196 68 -122 223 -84 247 59 21
129 -64 192 -186 137z"/>
<path d="M5996 7374 c-4 -11 11 -33 47 -67 29 -29 182 -188 341 -355 l287
-303 -27 -36 c-24 -32 -25 -36 -11 -51 13 -12 19 -13 31 -3 31 26 58 80 50
103 -4 12 -93 110 -198 218 -105 107 -259 266 -342 353 -83 86 -156 157 -161
157 -6 0 -14 -7 -17 -16z"/>
<path d="M7313 7237 c-23 -18 -42 -35 -43 -39 0 -4 15 -23 34 -42 24 -26 42
-36 64 -36 33 0 62 29 62 62 0 17 -56 89 -69 87 -3 0 -25 -15 -48 -32z"/>
<path d="M2834 7268 c-49 -57 -49 -56 -19 -88 16 -17 34 -30 42 -30 17 0 63
69 63 95 0 47 -53 60 -86 23z"/>
<path d="M2961 7154 c-22 -26 -41 -50 -41 -54 0 -4 16 -20 37 -35 l36 -28 33
36 c56 61 57 118 2 125 -20 2 -35 -8 -67 -44z"/>
<path d="M2625 6526 c-58 -27 -88 -57 -110 -108 -58 -141 56 -295 203 -273
127 19 226 135 207 246 -22 129 -170 196 -300 135z"/>
<path d="M7162 6394 c-30 -20 -29 -59 3 -80 30 -20 63 -10 76 23 10 28 -1 57
-27 67 -22 9 -27 8 -52 -10z"/>
<path d="M6066 5824 c-9 -8 -16 -24 -16 -35 0 -21 33 -59 53 -59 24 0 57 31
57 54 0 47 -62 73 -94 40z"/>
<path d="M2250 4645 l0 -297 183 4 c199 5 248 17 310 76 59 56 72 96 72 222 0
98 -3 121 -22 155 -28 53 -57 79 -118 106 -44 20 -71 23 -237 27 l-188 5 0
-298z"/>
<path d="M2254 3956 c-4 -9 -4 -70 -1 -134 4 -64 7 -203 7 -308 l0 -191 153
-1 c83 0 181 4 217 10 174 27 244 120 244 324 0 82 -3 97 -33 158 -59 120
-122 145 -393 153 -170 5 -188 4 -194 -11z"/>
<path d="M3081 2041 c-12 -16 -21 -32 -21 -35 0 -12 63 -37 88 -34 41 5 43 49
4 77 -39 27 -47 27 -71 -8z"/>
<path d="M2993 1918 c-25 -36 -21 -45 33 -79 37 -23 68 -19 84 11 5 10 7 25 4
33 -6 15 -77 67 -91 67 -5 0 -18 -15 -30 -32z"/>
<path d="M7062 2030 l-43 -19 26 -51 c29 -57 44 -61 92 -24 40 31 45 74 11 98
-28 20 -34 20 -86 -4z"/>
<path d="M3476 1769 c-25 -28 -46 -54 -46 -58 0 -8 54 -41 68 -41 8 0 34 140
27 148 -1 1 -23 -20 -49 -49z"/>
<path d="M6629 1825 c-102 -56 -20 -262 96 -241 18 4 45 18 59 33 65 65 -1
224 -93 223 -20 -1 -48 -7 -62 -15z"/>
<path d="M3912 1687 c-18 -22 -32 -91 -22 -101 6 -6 34 -10 62 -11 47 0 54 3
65 27 21 43 2 68 -68 88 -18 6 -31 4 -37 -3z"/>
<path d="M4356 1581 c-2 -3 -7 -23 -11 -45 -6 -28 -4 -41 6 -47 20 -13 83 -11
97 3 17 17 15 53 -3 68 -18 15 -84 31 -89 21z"/>
<path d="M4315 1379 c-8 -49 -3 -55 52 -62 58 -7 78 11 74 64 -1 20 -42 39
-86 39 -31 0 -34 -2 -40 -41z"/>
<path d="M5220 1466 c0 -64 7 -76 45 -76 78 0 115 43 81 95 -14 22 -24 25 -71
25 l-55 0 0 -44z"/>
</g>
</svg>
